<svg
  xmlns="http://www.w3.org/2000/svg"
  xmlns:xlink="http://www.w3.org/1999/xlink"
  width="512"
  height="512"
  viewBox="0 0 55 50"
  version="1.1"
>
  <defs />
  <g
    id="050---Human-Brain"
    transform="translate(0.000000, -1.000000)"
    fill="#FFFFFF"
    fill-rule="nonzero"
  >
    <path
      d="M21,18 L22,18 C22.5522847,18 23,17.5522847 23,17 C23,16.4477153 22.5522847,16 22,16 L21,16 C19.3431458,16 18,17.3431458 18,19 L18,20 C18,21.6568542 19.3431458,23 21,23 L22,23 C22.5522847,23 23,22.5522847 23,22 C23,21.4477153 22.5522847,21 22,21 L21,21 C20.4477153,21 20,20.5522847 20,20 L20,19 C20,18.4477153 20.4477153,18 21,18 Z"
      id="Shape"
    />
    <path
      d="M28,15 C27.4477153,15 27,15.4477153 27,16 L27,18 C27,18.5522847 26.5522847,19 26,19 L25,19 C24.4477153,19 24,19.4477153 24,20 C24,20.5522847 24.4477153,21 25,21 L26,21 C27.6568542,21 29,19.6568542 29,18 L29,16 C29,15.4477153 28.5522847,15 28,15 Z"
      id="Shape"
    />
    <path
      d="M32,15 L32,14 C32,12.3431458 30.6568542,11 29,11 L27,11 C25.3431458,11 24,12.3431458 24,14 L24,15 C24,15.5522847 24.4477153,16 25,16 C25.5522847,16 26,15.5522847 26,15 L26,14 C26,13.4477153 26.4477153,13 27,13 L29,13 C29.5522847,13 30,13.4477153 30,14 L30,15 C30,15.5522847 30.4477153,16 31,16 C31.5522847,16 32,15.5522847 32,15 Z"
      id="Shape"
    />
    <path
      d="M35,22 L34,22 C33.4477153,22 33,21.5522847 33,21 L33,20 C33,19.4477153 32.5522847,19 32,19 C31.4477153,19 31,19.4477153 31,20 L31,21 C31,22.6568542 32.3431458,24 34,24 L35,24 C35.5522847,24 36,23.5522847 36,23 C36,22.4477153 35.5522847,22 35,22 Z"
      id="Shape"
    />
    <path
      d="M40,19 C40,18.4477153 39.5522847,18 39,18 L38,18 C37.4477153,18 37,17.5522847 37,17 C37,16.4477153 37.4477153,16 38,16 L39,16 C39.5522847,16 40,15.5522847 40,15 C40,14.4477153 39.5522847,14 39,14 L38,14 C36.3431458,14 35,15.3431458 35,17 C35,18.6568542 36.3431458,20 38,20 L39,20 C39.5522847,20 40,19.5522847 40,19 Z"
      id="Shape"
    />
    <path
      d="M43,19 C42.4477153,19 42,19.4477153 42,20 L42,22 C42,22.5522847 41.5522847,23 41,23 L40,23 C39.4477153,23 39,23.4477153 39,24 C39,24.5522847 39.4477153,25 40,25 L41,25 C42.6568542,25 44,23.6568542 44,22 L44,20 C44,19.4477153 43.5522847,19 43,19 Z"
      id="Shape"
    />
    <path
      d="M50.96,22 C50.96,21.984 50.952,21.971 50.951,21.955 C50.8613293,20.1680696 50.5769805,18.3962546 50.103,16.671 C49.330047,14.0465827 47.7163132,11.7487776 45.51,10.131 C40.987,6.583 36.886,5 32.209,5 C31.841,5 31.469,5.01 31.088,5.028 C30.747,5.046 30.406,5.085 30.065,5.113 C30.042,5.113 30.023,5.1 30,5.1 C29.9475281,5.1057928 29.8956636,5.11616569 29.845,5.131 C27.2093501,5.38522514 24.5901741,5.78820099 22,6.338 C20.8640553,6.56172971 19.7463099,6.86957765 18.656,7.259 C18.633,7.268 18.61,7.273 18.588,7.283 C16.9021152,7.83756992 15.366481,8.77270543 14.1,10.016 C12.8740106,11.3326751 11.8974814,12.8611704 11.218,14.527 C11.1873174,14.5834274 11.1621991,14.6427067 11.143,14.704 C11.076,14.868 10.999,15.023 10.937,15.19 C10.63,16.023 10.147,18.097 10.086,18.358 C9.861,19.477 9.303,23.312 11.572,25.718 C13.012,27.244 15.214,27.808 18.106,27.398 L19.452,27.206 C25.868,26.283 29.088,25.82 31.859,28.53 C32.392,29.051 32.938,29.583 33.506,30.1 C32.877,32.078 32.061,36.3 35.406,38.8 C39,41.5 39,42.231 39,44 C38.9980979,44.3475069 39.1767435,44.6710847 39.4718336,44.8546237 C39.7669236,45.0381628 40.1361412,45.0553431 40.447,44.9 C40.709,44.764 43,43.488 43,39 C43,36.545 44.83,34.423 46.637,32.667 L46.667,32.64 C47.6468732,31.9673659 48.4943659,31.1198732 49.167,30.14 C49.8924722,28.9963865 50.4113612,27.7341967 50.7,26.411 C50.7591015,26.2820309 50.7897945,26.141866 50.79,26 C50.9156016,25.3440544 50.9858489,24.6787126 51,24.011 C51.01,23.34 50.995,22.675 50.959,22.018 C50.9597998,22.012035 50.9601341,22.0060169 50.96,22 Z M41,39 C41.0169618,39.8317031 40.8980655,40.6605991 40.648,41.454 C40.181,40.285 39.099,39.074 36.6,37.199 C34.613,35.711 34.753,33.237 35.182,31.499 C37.0555389,33.0028737 39.3796838,33.8342837 41.782,33.86 C42.1715681,33.8571151 42.5607375,33.8344192 42.948,33.792 C41.7464518,35.2681717 41.0621541,37.0976494 41,39 Z M47.48,29.074 C46.7801377,30.1229793 45.7902606,30.9457343 44.631,31.442 C42.7956612,32.0328341 40.8168986,32.0033161 39,31.358 L39,30 C39,29.4477153 39.4477153,29 40,29 L43,29 C43.5522847,29 44,28.5522847 44,28 C44,27.4477153 43.5522847,27 43,27 L40,27 C38.3431458,27 37,28.3431458 37,30 L37,30.311 C35.6568725,29.3568245 34.4033694,28.2823933 33.255,27.101 C32.0939849,25.9241675 30.6155088,25.110745 29,24.76 L29,24 C29,23.4477153 28.5522847,23 28,23 C27.4477153,23 27,23.4477153 27,24 L27,24.516 C24.372467,24.5212807 21.7505619,24.7592098 19.165,25.227 L17.823,25.418 C17.2196722,25.506902 16.6092719,25.5383762 16,25.512 L16,25 C16,24.4477153 15.5522847,24 15,24 C14.4477153,24 14,24.4477153 14,25 L14,25.048 C13.6348309,24.8754153 13.303848,24.638273 13.023,24.348 C12.4498589,23.6849786 12.0831393,22.8688101 11.968,22 L13,22 C14.6568542,22 16,20.6568542 16,19 C16,18.4477153 15.5522847,18 15,18 C14.4477153,18 14,18.4477153 14,19 C14,19.5522847 13.5522847,20 13,20 L11.879,20 C11.9061992,19.5907162 11.9593056,19.1835671 12.038,18.781 C12.169,18.213 12.538,16.681 12.771,16 L16,16 C16.5522847,16 17,15.5522847 17,15 C17,14.4477153 16.5522847,14 16,14 L13.682,14 C14.1890563,13.0533587 14.816612,12.176394 15.549,11.391 C16.2570998,10.6820426 17.0874279,10.1068092 18,9.693 L18,11 C18,12.6568542 19.3431458,14 21,14 C21.5522847,14 22,13.5522847 22,13 C22,12.4477153 21.5522847,12 21,12 C20.4477153,12 20,11.5522847 20,11 L20,8.91 C20.7885301,8.66394474 21.5896787,8.46031949 22.4,8.3 C23.252,8.128 24.124,7.963 25,7.806 L25,8 C25,8.55228475 25.4477153,9 26,9 C26.5522847,9 27,8.55228475 27,8 L27,7.473 C27.666,7.373 28.333,7.281 29,7.208 L29,8 C29,8.55228475 29.4477153,9 30,9 C30.5522847,9 31,8.55228475 31,8 L31,7.042 C31.063,7.042 31.127,7.03 31.189,7.026 C31.807,7 32.408,7 33,7.025 L33,11 C33,11.5522847 33.4477153,12 34,12 L36,12 C36.5522847,12 37,11.5522847 37,11 C37,10.4477153 36.5522847,10 36,10 L35,10 L35,7.243 C36.7496696,7.53951628 38.4415187,8.11055331 40.013,8.935 C40.013,8.958 40,8.977 40,9 L40,12 C40,12.5522847 40.4477153,13 41,13 C41.5522847,13 42,12.5522847 42,12 L42,10.09 C42.656,10.515 43.32,10.979 44,11.502 L44,14 C44,14.5522847 43.5522847,15 43,15 C42.4477153,15 42,15.4477153 42,16 C42,16.5522847 42.4477153,17 43,17 C44.6568542,17 46,15.6568542 46,14 L46,13.315 C47.0162913,14.4303449 47.7619136,15.7648686 48.179,17.215 C48.5180739,18.4540494 48.7469645,19.7206446 48.863,21 L47,21 C46.4477153,21 46,21.4477153 46,22 C46,22.5522847 46.4477153,23 47,23 L48.979,23 C48.986,23.327 49.002,23.652 48.997,23.982 C48.992,24.33 48.954,24.665 48.916,25 L47,25 C46.4477153,25 46,25.4477153 46,26 C46,26.5522847 46.4477153,27 47,27 L48.464,27 C48.2185545,27.7275643 47.8882799,28.4236918 47.48,29.074 Z"
      id="Shape"
    />
  </g>
</svg>